<!--- SPDX-FileCopyrightText: 2023 to Present, Sovereign Matt <npub:npub1fl7pr0azlpgk469u034lsgn46dvwguz9g339p03dpetp9cs5pq5qxzeknp>

SPDX-License-Identifier: CC0-1.0 -->
<svg version="1.1" xmlns="http://www.w3.org/2000/svg" width="32" height="32" fill="purple" viewBox="0 0 32 32">
<title>ds-nostr</title>
<path d="M3.998 31.983c-0.095-0.023-0.194-0.145-0.237-0.292-0.028-0.098-0.041-0.245-0.041-0.49-0.003-0.495 0.059-0.733 0.343-1.332 0.196-0.413 0.204-0.472 0.121-0.88-0.119-0.578-0.093-0.759 0.137-0.97 0.173-0.16 0.289-0.204 0.741-0.279 0.485-0.077 0.653-0.15 0.88-0.382 0.083-0.083 0.454-0.591 0.844-1.154 0.382-0.552 1.061-1.525 1.507-2.165 0.446-0.637 0.852-1.236 0.898-1.329s0.116-0.279 0.152-0.413c0.095-0.354 0.155-0.495 0.297-0.697 0.17-0.24 0.426-0.454 0.735-0.614 0.325-0.165 0.756-0.506 1.804-1.422 0.792-0.692 1.277-1.192 1.277-1.316 0-0.137-0.245-0.289-0.619-0.387-0.96-0.255-2.036-0.601-2.477-0.8-0.4-0.181-0.63-0.307-0.968-0.529-0.155-0.103-0.33-0.206-0.39-0.23-0.423-0.163-1.324-0.124-1.987 0.088-0.369 0.116-0.674 0.271-1.161 0.591-0.33 0.219-0.56 0.297-0.862 0.297-0.209 0-0.23-0.005-0.439-0.114-0.932-0.483-1.489-0.849-1.884-1.244-0.299-0.299-0.374-0.49-0.369-0.939 0.003-0.346 0.080-0.684 0.232-1.048 0.514-1.21 1.329-1.794 2.963-2.124 0.526-0.106 1.347-0.191 2.748-0.286 1.141-0.077 1.92-0.191 2.637-0.39 0.588-0.16 0.795-0.25 1.659-0.717 1.071-0.578 1.737-0.877 2.612-1.177 1.365-0.467 2.594-0.679 3.982-0.681 0.792-0.003 0.875 0.008 1.613 0.196 0.47 0.119 0.999 0.294 2.323 0.774 1.853 0.671 2.134 0.733 3.001 0.671 0.485-0.034 0.735-0.088 1.014-0.222 0.32-0.15 0.707-0.475 0.841-0.705 0.121-0.206 0.286-0.645 0.374-0.983 0.075-0.299 0.083-0.361 0.083-0.728 0-0.372-0.005-0.415-0.072-0.606-0.088-0.258-0.178-0.397-0.457-0.723-0.297-0.343-0.503-0.537-1.133-1.076-0.862-0.738-1.321-1.244-1.561-1.721-0.116-0.235-0.237-0.573-0.281-0.785-0.139-0.676-0.101-1.197 0.132-1.747 0.173-0.408 0.354-0.619 0.663-0.772 0.232-0.114 0.39-0.139 0.751-0.124 0.49 0.021 0.725 0.126 1.283 0.578 0.581 0.47 0.674 0.516 1.262 0.666 0.31 0.080 0.379 0.111 0.526 0.248 0.199 0.183 0.214 0.335 0.044 0.449-0.186 0.121-0.335 0.142-1.112 0.139-1.399-0.003-1.788 0.129-1.892 0.635-0.088 0.441 0.121 0.707 1.308 1.665 1.004 0.813 1.422 1.332 1.685 2.106 0.137 0.397 0.173 0.681 0.173 1.314-0.003 0.516-0.010 0.63-0.062 0.865-0.119 0.563-0.351 1.128-0.699 1.703-0.547 0.911-1.698 1.959-2.929 2.671-0.31 0.178-0.361 0.217-0.452 0.343-0.116 0.16-0.15 0.315-0.165 0.792-0.054 1.657-0.671 2.947-1.631 3.404-0.599 0.289-2 0.679-3.559 0.996-0.483 0.098-0.955 0.204-1.048 0.24-0.227 0.080-0.686 0.377-0.872 0.56-0.271 0.266-0.772 0.888-1.319 1.639-0.32 0.436-0.828 1.179-0.818 1.19 0.003 0.005 0.418-0.121 0.921-0.276 3.303-1.025 4.346-1.329 4.609-1.352 0.39-0.034 0.764 0.093 1.009 0.338 0.214 0.214 1.481 2.152 1.533 2.346 0.044 0.155 0.010 0.32-0.080 0.41-0.065 0.067-0.101 0.080-0.243 0.088-0.147 0.010-0.191 0-0.343-0.070-0.095-0.046-0.209-0.116-0.253-0.155-0.199-0.183-0.372-0.248-0.748-0.271-0.387-0.026-0.575-0.093-0.738-0.266-0.111-0.116-0.152-0.191-0.23-0.434-0.034-0.108-0.083-0.204-0.124-0.243-0.059-0.054-0.085-0.059-0.222-0.046-0.098 0.008-0.756 0.199-1.757 0.508-2.932 0.906-2.97 0.921-3.613 1.234-0.568 0.276-0.568 0.276-0.813 0.276-0.214 0-0.261-0.008-0.374-0.070-0.163-0.083-0.361-0.292-0.434-0.454-0.080-0.178-0.090-0.583-0.023-0.908 0.106-0.514 0.643-1.525 1.672-3.148 0.103-0.163 0.183-0.299 0.178-0.305-0.023-0.023-1.283 0.511-1.554 0.658-0.237 0.126-1.806 1.337-2.348 1.806-0.147 0.129-0.163 0.155-0.227 0.356-0.15 0.47-0.413 0.766-0.883 0.994-0.341 0.165-0.493 0.281-0.694 0.521-0.088 0.103-0.65 0.862-1.249 1.685-2.836 3.886-3.179 4.346-3.556 4.756-0.529 0.583-0.712 0.831-0.924 1.257-0.106 0.212-0.217 0.413-0.248 0.444-0.083 0.088-0.25 0.126-0.395 0.093z"></path>
<path d="M4.070 31.983c0.023-0.005 0.065-0.005 0.090 0 0.023 0.008 0.003 0.013-0.046 0.013s-0.070-0.005-0.044-0.013z"></path>
<path d="M3.709 31.175c0-0.093 0.005-0.129 0.010-0.083 0.005 0.044 0.005 0.121 0 0.168-0.005 0.044-0.010 0.008-0.010-0.085z"></path>
<path d="M5.482 30.259c0.049-0.049 0.093-0.090 0.101-0.090s-0.026 0.041-0.075 0.090c-0.049 0.049-0.093 0.090-0.101 0.090s0.026-0.041 0.075-0.090z"></path>
<path d="M5.688 30.032c0-0.005 0.039-0.041 0.085-0.085 0.083-0.075 0.083-0.075 0.008 0.010-0.072 0.077-0.093 0.095-0.093 0.075z"></path>
<path d="M22.535 23.26c0.046-0.005 0.116-0.005 0.155 0s0 0.010-0.085 0.010c-0.085 0-0.116-0.005-0.070-0.010z"></path>
<path d="M14.604 21.91c0.023-0.041 0.046-0.077 0.054-0.077 0.005 0-0.005 0.036-0.028 0.077-0.023 0.044-0.046 0.077-0.054 0.077-0.005 0 0.005-0.034 0.028-0.077z"></path>
<path d="M9.817 21.389c0.106-0.116 0.129-0.137 0.129-0.116 0 0.005-0.054 0.059-0.121 0.121-0.124 0.116-0.124 0.116-0.008-0.005z"></path>
<path d="M22.666 20.912c-0.088-0.098-0.088-0.098 0.010-0.010 0.052 0.049 0.095 0.093 0.095 0.098 0 0.021-0.021 0-0.106-0.088z"></path>
<path d="M21.735 20.576c0.046-0.005 0.116-0.005 0.155 0s0 0.010-0.085 0.010c-0.085 0-0.116-0.005-0.070-0.010z"></path>
<path d="M12.682 19.11c0.049-0.049 0.093-0.090 0.101-0.090s-0.026 0.041-0.075 0.090c-0.049 0.049-0.093 0.090-0.101 0.090s0.026-0.041 0.075-0.090z"></path>
<path d="M24.333 17.162c0.054-0.057 0.106-0.103 0.114-0.103s-0.034 0.046-0.088 0.103c-0.054 0.057-0.106 0.103-0.114 0.103s0.034-0.046 0.088-0.103z"></path>
<path d="M8.019 16.189c0.039-0.005 0.101-0.005 0.142 0 0.039 0.005 0.005 0.010-0.072 0.010s-0.111-0.005-0.070-0.010z"></path>
<path d="M8.354 16.189c0.039-0.005 0.101-0.005 0.142 0 0.039 0.005 0.005 0.010-0.072 0.010s-0.111-0.005-0.070-0.010z"></path>
<path d="M2.653 15.918c-0.075-0.085-0.075-0.085 0.010-0.010 0.077 0.072 0.095 0.093 0.075 0.093-0.005 0-0.041-0.039-0.085-0.083z"></path>
<path d="M2.29 15.007c0-0.070 0.005-0.098 0.010-0.057 0.005 0.039 0.005 0.095 0 0.129-0.005 0.031-0.010 0-0.010-0.072z"></path>
<path d="M25.384 14.323c0-0.049 0.005-0.070 0.013-0.044 0.005 0.023 0.005 0.065 0 0.090-0.008 0.023-0.013 0.003-0.013-0.046z"></path>
<path d="M3.237 12.845c0-0.005 0.039-0.041 0.085-0.085 0.083-0.075 0.083-0.075 0.008 0.010-0.072 0.077-0.093 0.095-0.093 0.075z"></path>
<path d="M7.902 11.544c0.031-0.005 0.077-0.005 0.103 0 0.023 0.008-0.003 0.013-0.059 0.010-0.057 0-0.077-0.005-0.044-0.010z"></path>
<path d="M8.302 11.518c0.023-0.005 0.065-0.005 0.090 0 0.023 0.008 0.003 0.013-0.046 0.013s-0.070-0.005-0.044-0.013z"></path>
<path d="M26.044 10.202c0.031-0.005 0.083-0.005 0.116 0 0.031 0.005 0.005 0.010-0.059 0.010s-0.090-0.005-0.057-0.010z"></path>
<path d="M27.688 9.549c0.054-0.057 0.106-0.103 0.114-0.103s-0.034 0.046-0.088 0.103c-0.054 0.057-0.106 0.103-0.114 0.103s0.034-0.046 0.088-0.103z"></path>
<path d="M18.831 8.55c0.067-0.005 0.175-0.005 0.245 0 0.067 0.005 0.010 0.008-0.124 0.008s-0.191-0.003-0.121-0.008z"></path>
<path d="M19.386 8.55c0.059-0.005 0.152-0.005 0.206 0 0.052 0.005 0.003 0.010-0.111 0.010s-0.157-0.005-0.095-0.010z"></path>
<path d="M29.693 7.381c0-0.049 0.005-0.070 0.013-0.044 0.005 0.023 0.005 0.065 0 0.090-0.008 0.023-0.013 0.003-0.013-0.046z"></path>
<path d="M27.52 5.866c-0.168-0.175-0.168-0.175 0.008-0.008 0.16 0.155 0.186 0.181 0.165 0.181-0.003 0-0.083-0.077-0.173-0.173z"></path>
<path d="M26.241 4.744c-0.075-0.085-0.075-0.085 0.010-0.010 0.044 0.044 0.083 0.080 0.083 0.085 0 0.021-0.021 0.003-0.093-0.075z"></path>
<path d="M27.915 2.073c0.067-0.005 0.175-0.005 0.245 0 0.067 0.005 0.010 0.008-0.124 0.008s-0.191-0.003-0.121-0.008z"></path>
<path d="M28.431 2.073c0.039-0.005 0.101-0.005 0.142 0 0.039 0.005 0.005 0.010-0.072 0.010s-0.111-0.005-0.070-0.010z"></path>
<path d="M24.793 1.923c0-0.085 0.005-0.116 0.010-0.070s0.005 0.116 0 0.155c-0.005 0.039-0.010 0-0.010-0.085z"></path>
<path d="M25.34 0.362c0.054-0.057 0.106-0.103 0.114-0.103s-0.034 0.046-0.088 0.103c-0.054 0.057-0.106 0.103-0.114 0.103s0.034-0.046 0.088-0.103z"></path>
</svg>
